<!-- Generated by IcoMoon.io -->
<svg version="1.1" xmlns="http://www.w3.org/2000/svg" width="24" height="24" viewBox="0 0 24 24" fill="#9fc5ef">
<path d="M18 6h-2.016q0-1.125-0.539-2.016t-1.43-1.43-2.016-0.539-2.016 0.539-1.43 1.43-0.539 2.016h-2.016q-0.844 0-1.43 0.586t-0.586 1.43v12q0 0.797 0.586 1.383t1.43 0.586h12q0.844 0 1.43-0.586t0.586-1.383v-12q0-0.844-0.586-1.43t-1.43-0.586zM9.984 9.984q0 0.422-0.281 0.727t-0.703 0.305-0.703-0.305-0.281-0.727v-1.969h1.969v1.969zM12 3.984q0.844 0 1.43 0.586t0.586 1.43h-4.031q0-0.844 0.586-1.43t1.43-0.586zM15.984 9.984q0 0.422-0.281 0.727t-0.703 0.305-0.703-0.305-0.281-0.727v-1.969h1.969v1.969z"></path>
</svg>
